<?xml version="1.0" encoding="UTF-8" standalone="no"?>
<!-- Created with Inkscape (http://www.inkscape.org/) -->

<svg
   version="1.1"
   id="svg2"
   width="1481.7067"
   height="1170.52"
   viewBox="0 0 1481.7067 1170.52"
   sodipodi:docname="black-and-white-4270982.ai"
   xmlns:inkscape="http://www.inkscape.org/namespaces/inkscape"
   xmlns:sodipodi="http://sodipodi.sourceforge.net/DTD/sodipodi-0.dtd"
   xmlns="http://www.w3.org/2000/svg"
   xmlns:svg="http://www.w3.org/2000/svg">
  <defs
     id="defs6">
    <clipPath
       clipPathUnits="userSpaceOnUse"
       id="clipPath16">
      <path
         d="M 0,877.89 H 1111.28 V 0 H 0 Z"
         id="path14" />
    </clipPath>
  </defs>
  <sodipodi:namedview
     id="namedview4"
     pagecolor="#ffffff"
     bordercolor="#000000"
     borderopacity="0.25"
     inkscape:showpageshadow="2"
     inkscape:pageopacity="0.0"
     inkscape:pagecheckerboard="0"
     inkscape:deskcolor="#d1d1d1" />
  <g
     id="g8"
     inkscape:groupmode="layer"
     inkscape:label="black-and-white-4270982"
     transform="matrix(1.3333333,0,0,-1.3333333,0,1170.52)">
    <g
       id="g10">
      <g
         id="g12"
         clip-path="url(#clipPath16)">
        <g
           id="g18"
           transform="translate(648.0132,447.1528)">
          <path
             d="M 0,0 C -0.076,-0.015 -0.153,-0.024 -0.229,-0.039 -1.521,-0.298 -0.609,-0.121 0,0"
             style="fill:#000000;fill-opacity:1;fill-rule:nonzero;stroke:none"
             id="path20" />
        </g>
        <g
           id="g22"
           transform="translate(855.5566,486.1299)">
          <path
             d="M 0,0 C 3.063,0.089 6.218,-0.223 9.032,1.716 9.552,2.074 10.081,2.393 10.616,2.69 5.061,1.654 -0.383,0.597 -5.25,-0.384 -3.515,-0.19 -1.768,-0.051 0,0"
             style="fill:#000000;fill-opacity:1;fill-rule:nonzero;stroke:none"
             id="path24" />
        </g>
        <g
           id="g26"
           transform="translate(885.29,492.0332)">
          <path
             d="M 0,0 C 0.304,0.114 0.609,0.207 0.913,0.315 -1.15,-0.022 -3.287,-0.382 -5.469,-0.758 -3.662,-0.889 -1.687,-0.635 0,0"
             style="fill:#000000;fill-opacity:1;fill-rule:nonzero;stroke:none"
             id="path28" />
        </g>
        <g
           id="g30"
           transform="translate(405.7935,405.2749)">
          <path
             d="M 0,0 C 7.949,1.293 15.753,3.453 23.687,4.864 15.753,3.453 -14.913,-1.737 -22.384,-2.48 -14.913,-1.737 -7.401,-1.204 0,0"
             style="fill:#000000;fill-opacity:1;fill-rule:nonzero;stroke:none"
             id="path32" />
        </g>
        <g
           id="g34"
           transform="translate(864.5806,528.1094)">
          <path
             d="M 0,0 C -2.32,3.183 -4.826,3.178 -9.487,1.32 -4.713,3.223 -3.226,2.648 0,0"
             style="fill:#000000;fill-opacity:1;fill-rule:nonzero;stroke:none"
             id="path36" />
        </g>
        <g
           id="g38"
           transform="translate(648.0132,447.1528)">
          <path
             d="M 0,0 C 2.197,0.416 4.417,0.725 6.637,1.004 14.703,2.02 22.918,2.311 30.392,6.103 L -0.229,-0.039 C 0.75,0.15 0.461,0.091 0,0"
             style="fill:#000000;fill-opacity:1;fill-rule:nonzero;stroke:none"
             id="path40" />
        </g>
        <g
           id="g42"
           transform="translate(647.7837,447.1143)">
          <path
             d="M 0,0 C 0.076,0.015 0.153,0.024 0.229,0.039 0.691,0.13 0.979,0.188 0,0"
             style="fill:#000000;fill-opacity:1;fill-rule:nonzero;stroke:none"
             id="path44" />
        </g>
        <g
           id="g46"
           transform="translate(517.3096,424.8394)">
          <path
             d="M 0,0 C -5.906,-1.062 -15.416,-2.709 -25.156,-4.381 -16.75,-3.051 -8.379,-1.508 0,0"
             style="fill:#000000;fill-opacity:1;fill-rule:nonzero;stroke:none"
             id="path48" />
        </g>
        <g
           id="g50"
           transform="translate(995.1636,438.438)">
          <path
             d="M 0,0 -0.013,0.002 C -0.1,-0.054 -0.187,-0.11 -0.275,-0.167 Z"
             style="fill:#000000;fill-opacity:1;fill-rule:nonzero;stroke:none"
             id="path52" />
        </g>
        <g
           id="g54"
           transform="translate(713.9487,98.917)">
          <path
             d="m 0,0 c 2.031,1.652 4.16,3.272 6.47,4.476 6.732,3.506 13.588,6.774 20.373,10.177 5.318,2.668 10.408,5.65 14.068,10.552 L -8.085,-0.729 C -5.226,-2.921 -3.208,-2.608 0,0"
             style="fill:#000000;fill-opacity:1;fill-rule:nonzero;stroke:none"
             id="path56" />
        </g>
        <g
           id="g58"
           transform="translate(954.2607,572.8804)">
          <path
             d="M 0,0 C -3.135,-0.718 -6.25,-1.513 -9.354,-2.348 Z"
             style="fill:#000000;fill-opacity:1;fill-rule:nonzero;stroke:none"
             id="path60" />
        </g>
        <g
           id="g62"
           transform="translate(995.1636,438.438)">
          <path
             d="m 0,0 -0.275,-0.167 c -1.759,-1.146 -3.517,-2.295 -5.284,-3.429 -1.671,-1.073 -3.417,-2.052 -5.202,-2.957 l -21.356,-13.004 -10.483,-6.383 -1.043,-0.636 -10.751,-6.546 c -1.441,-2.1 -2.876,-1.605 -6.831,0.739 -11.683,6.922 -23.324,13.916 -35.04,20.783 -2.677,1.569 -5.643,2.637 -8.377,4.118 -5.161,2.796 -6.881,6.776 -4.912,12.231 3.533,9.785 8.611,18.674 15.834,26.294 6.081,6.415 13.076,9.425 22.137,8.008 5.957,-0.931 12.1,-0.75 18.164,-0.906 10.967,-0.281 21.413,-3.102 31.919,-5.939 11.777,-3.18 23.757,-5.604 35.575,-8.644 4.352,-1.119 8.494,-3.055 13.279,-4.82 -0.9,-0.97 -1.154,-1.373 -1.515,-1.613 C 17.228,11.412 8.646,5.647 -0.013,0.002 Z m 3.509,-127.962 c 3.741,2.679 6.658,6.613 9.621,10.239 2.189,2.679 1.593,5.191 -1.012,7.612 -1.576,1.466 -3.08,3.009 -4.592,4.542 -0.319,0.324 -0.528,0.758 -0.788,1.142 0.088,0.193 0.177,0.387 0.265,0.581 0.559,-0.098 1.151,-0.108 1.669,-0.308 6.559,-2.522 13.153,-4.962 19.644,-7.647 6.31,-2.61 7.11,-8.179 2.061,-12.75 -10.109,-9.153 -20.893,-17.414 -31.92,-25.361 h 0.013 l -52.814,-38.809 c -5.671,-5.215 -11.866,-9.8 -18.233,-14.194 -33.032,-22.795 -65.835,-45.933 -99.146,-68.314 -19.36,-13.007 -39.522,-24.819 -59.329,-37.159 -2.51,-1.564 -5.07,-3.049 -7.586,-4.602 -0.603,-0.372 -1.255,-0.775 -1.666,-1.326 -3.659,-4.902 -8.75,-7.884 -14.068,-10.552 -6.785,-3.403 -13.641,-6.671 -20.373,-10.177 -2.31,-1.204 -4.439,-2.824 -6.47,-4.476 -3.208,-2.608 -5.226,-2.921 -8.085,-0.729 -0.296,0.226 -0.598,0.471 -0.914,0.751 -5.366,4.766 -11.973,6.499 -18.776,7.81 -19.364,3.734 -38.728,7.464 -58.08,11.255 -19.117,3.744 -38.24,7.47 -57.325,11.377 -14.076,2.883 -28.095,6.044 -42.139,9.084 -0.218,0.048 -0.425,0.146 -0.586,0.57 4.632,-0.571 9.292,-0.972 13.891,-1.741 28.673,-4.792 57.304,-9.845 86.011,-14.425 11.587,-1.848 23.347,-2.577 34.994,-4.088 8.624,-1.119 17.157,-2.98 25.794,-3.955 8.325,-0.939 16.724,-1.343 25.103,-1.634 4.459,-0.155 8.308,2.056 11.878,4.594 22.089,15.708 44.102,31.525 66.278,47.11 35.781,25.145 71.725,50.06 107.497,75.219 33.156,23.32 66.229,46.758 99.183,70.361 M -298.69,-347.29 c -3.645,0.161 -7.283,0.868 -10.885,1.54 -22.29,4.167 -44.537,8.565 -66.862,12.529 -12.655,2.248 -25.515,3.369 -38.13,5.793 -19.986,3.84 -39.869,8.236 -59.751,12.597 -26.978,5.916 -53.932,11.945 -80.865,18.065 -38.295,8.702 -76.556,17.555 -114.841,26.298 -21.244,4.851 -42.653,9.059 -63.727,14.554 -26.561,6.925 -52.864,14.844 -79.262,22.388 -7.598,2.172 -15.14,4.535 -22.711,6.798 -9.813,2.932 -17.843,8.488 -24.097,16.558 -8.797,11.351 -16.061,23.513 -18.712,37.88 -3.458,18.742 0.177,36.327 8.868,53.092 5.557,10.719 13.705,19.199 22.643,27.05 1.681,1.478 3.272,3.092 5.104,4.355 1.878,1.296 4.001,2.238 6.017,3.335 0.178,-0.266 0.357,-0.532 0.535,-0.798 -0.828,-0.943 -1.529,-2.053 -2.506,-2.802 -7.467,-5.718 -12.807,-13.122 -17.068,-21.376 -2.42,-4.685 -4.727,-9.429 -7.025,-14.176 -0.442,-0.912 -0.799,-1.943 -0.873,-2.944 -0.981,-13.236 -1.952,-26.454 -0.9,-39.761 0.98,-12.407 3.013,-24.633 5.384,-36.818 1.042,-5.364 4.886,-8.14 9.793,-9.434 8.255,-2.177 16.574,-4.116 24.878,-6.11 35.853,-8.608 71.712,-17.198 107.568,-25.797 16.531,-3.965 63.139,-16.39 65.805,-17.45 5.859,-2.331 64.631,-19.16 84.643,-23.256 17.989,-3.681 36.02,-7.154 54.005,-10.854 22.753,-4.679 45.474,-9.517 68.217,-14.248 32.044,-6.665 64.086,-13.342 96.149,-19.916 11.963,-2.452 23.978,-4.662 35.984,-6.901 2.505,-0.468 5.074,-0.62 7.62,-0.838 3.178,-0.272 5.949,-1.274 7.734,-4.106 1.729,-2.745 0.506,-5.388 -2.732,-5.247 m -597.459,312.548 c -5.187,2.826 -10.645,5.151 -15.913,7.833 -20.296,10.336 -31.849,26.969 -35.595,49.309 -0.52,3.101 -2.334,5.988 -2.835,9.089 -1.042,6.449 -1.606,12.976 -2.367,19.472 -0.036,16.339 2.742,32.228 6.839,47.872 2.49,9.508 8.955,16.636 15.941,23.241 0.29,0.275 0.58,0.551 0.892,0.8 1.913,1.522 3.71,4.09 5.775,4.329 4.017,0.465 8.264,0.519 12.17,-1.561 18.689,-9.954 37.469,-19.738 56.134,-29.737 46.07,-24.68 92.221,-49.215 138.093,-74.258 29.32,-16.005 58.213,-32.793 87.249,-49.314 1.442,-0.82 2.565,-2.345 3.577,-3.731 0.846,-1.159 -0.035,-2.54 -1.465,-2.271 -1.532,0.287 -3.094,0.829 -4.442,1.607 -18.895,10.912 -37.53,22.295 -56.673,32.749 -34.082,18.613 -68.369,36.856 -102.752,54.908 -30.56,16.045 -61.385,31.584 -92.039,47.451 -4.029,2.086 -7.818,4.674 -11.575,7.24 -6.246,4.267 -12.975,5.929 -20.473,4.61 -2.588,-0.456 -5.283,-0.312 -7.87,-0.771 -6.676,-1.185 -11.509,-5.082 -13.831,-11.32 -5.509,-14.801 -9.94,-29.928 -9.784,-45.921 0.216,-22.216 4.997,-43.226 17.024,-62.279 3.662,-5.801 8.512,-10.168 14.41,-13.397 20.96,-11.472 42.038,-22.731 62.958,-34.275 57.657,-31.814 115.262,-63.723 172.875,-95.617 10.699,-5.923 21.36,-11.915 31.977,-17.983 1.622,-0.925 2.945,-2.399 4.326,-3.704 0.319,-0.301 0.565,-1.235 0.402,-1.379 -0.385,-0.344 -1.111,-0.643 -1.568,-0.509 -2.131,0.622 -4.381,1.1 -6.296,2.159 -58.619,32.4 -117.189,64.886 -175.798,97.303 -23.078,12.764 -46.206,25.441 -69.366,38.055 m 254.86,-97.102 c 0.163,-0.341 0.235,-0.725 0.449,-1.407 -20.747,9.641 -41.225,19.019 -61.583,28.651 -27.653,13.084 -55.357,26.075 -82.779,39.63 -33.127,16.375 -64.858,35.271 -96.24,54.75 -10.866,6.744 -21.761,13.442 -32.682,20.096 -3.119,1.901 -5.338,4.457 -6.884,7.749 -8.785,18.705 -8.391,37.712 -1.974,56.931 2.566,7.687 5.619,15.13 10.813,21.505 2.953,3.625 4.795,3.963 9.157,2.223 27.85,-11.114 53.577,-26.417 79.909,-40.51 32.688,-17.495 65.22,-35.283 97.847,-52.894 28.834,-15.564 57.65,-31.156 85.527,-48.409 0.136,-0.085 0.273,-0.166 0.41,-0.25 5.268,-3.225 5.582,-4.416 2.406,-9.734 -4.559,-7.634 -6.744,-16.062 -7.712,-24.752 -0.988,-8.884 -1.752,-17.828 -1.918,-26.759 -0.172,-9.228 1.203,-18.331 5.254,-26.82 m 566.05,71.486 c -9.486,-2.19 -19.046,-4.056 -28.578,-6.042 -13.052,-2.721 -26.112,-5.4 -39.158,-8.144 -6.633,-1.396 -13.224,-3.001 -19.87,-4.33 -21.213,-4.239 -42.469,-8.26 -63.658,-12.61 -33.236,-6.823 -66.436,-13.818 -99.64,-20.795 -19.842,-4.169 -39.634,-8.583 -59.504,-12.617 -12.121,-2.46 -24.401,-4.146 -36.508,-6.668 -9.209,-1.918 -18.191,-4.922 -27.393,-6.884 -19.285,-4.111 -38.645,-7.871 -57.981,-11.744 -28.414,-5.691 -56.832,-11.362 -85.251,-17.026 -11.356,-2.264 -22.717,-4.505 -34.086,-6.702 -1.398,-0.271 -2.98,-0.593 -4.261,-0.196 -1.46,0.452 -3.516,1.443 -3.854,2.619 -1.352,4.691 -4.418,7.676 -8.406,9.997 -13.4,7.802 -26.666,15.845 -40.237,23.337 -43.024,23.752 -86.212,47.207 -129.24,70.953 -29.314,16.176 -58.501,32.585 -87.662,49.035 -6.257,3.529 -12.22,7.597 -18.19,11.607 -1.915,1.286 -3.42,3.181 -5.113,4.798 0.224,0.259 0.447,0.518 0.67,0.776 0.637,-0.383 1.272,-0.768 1.909,-1.152 23.482,-14.14 46.653,-28.833 70.536,-42.262 23.248,-13.071 47.127,-25.034 70.904,-37.14 28.548,-14.534 57.273,-28.716 85.935,-43.023 13.372,-6.674 26.806,-13.222 40.157,-19.935 10.437,-5.248 21.2,-5.524 32.45,-3.213 30.266,6.216 60.584,12.18 90.894,18.177 33.832,6.693 67.673,13.343 101.521,19.953 30.873,6.029 61.759,11.985 92.642,17.963 30.406,5.886 60.81,11.789 91.225,17.63 36.146,6.943 72.307,13.807 108.453,20.753 9.64,1.852 19.257,3.835 28.866,5.843 7.519,1.571 10.613,4.827 12.034,12.371 0.029,0.156 0.053,0.315 0.088,0.471 0.83,3.785 1.814,4.228 4.929,2.004 5.205,-3.717 10.358,-7.507 15.514,-11.292 1.223,-0.897 2.463,-1.802 3.536,-2.866 5.224,-5.182 3.478,-11.996 -3.673,-13.646 m -301.196,-106.889 c -17.924,3.581 -35.717,7.822 -53.567,11.773 -0.531,0.118 -1.046,0.301 -1.569,0.453 -0.015,0.163 -0.03,0.327 -0.045,0.49 11.111,3.496 22.028,7.931 33.375,10.281 20.221,4.19 40.375,8.717 60.644,12.685 16.372,3.204 32.681,6.732 49.066,9.863 9.946,1.901 20.116,2.759 29.951,5.082 18.401,4.347 36.667,9.282 54.922,14.221 22.731,6.151 45.389,12.57 68.095,18.815 1.402,0.385 2.944,0.261 4.421,0.375 0.063,-0.281 0.126,-0.562 0.188,-0.843 -0.784,-0.487 -1.549,-1.008 -2.357,-1.453 -6.295,-3.478 -12.723,-6.737 -18.869,-10.46 -8.06,-4.881 -15.785,-10.32 -23.873,-15.15 -5.885,-3.514 -12.308,-6.132 -18.167,-9.682 -10.795,-6.541 -21.304,-13.551 -32.021,-20.223 -9.431,-5.871 -19.079,-11.4 -28.432,-17.391 -3.384,-2.167 -6.217,-5.203 -9.257,-7.892 -7.898,-6.987 -16.718,-12.588 -26.086,-17.353 -0.838,-0.426 -1.973,-0.501 -2.939,-0.409 -28.407,2.702 -55.643,11.256 -83.48,16.818 m -106.263,8.115 c 0.056,0.374 0.113,0.747 0.169,1.12 3.304,0.34 6.6,0.847 9.912,0.988 12.104,0.516 23.795,-1.944 35.478,-4.804 12.004,-2.937 24.126,-5.398 36.213,-7.989 10.98,-2.353 21.994,-4.546 32.972,-6.907 19.738,-4.246 39.461,-8.56 59.185,-12.87 1.158,-0.253 2.314,-0.629 3.378,-1.141 0.429,-0.207 0.606,-0.935 0.899,-1.426 -0.444,-0.245 -0.904,-0.728 -1.327,-0.697 -3.792,0.278 -7.637,0.331 -11.354,1.038 -41.637,7.912 -83.253,15.927 -124.874,23.919 -12.46,2.393 -24.923,4.776 -37.369,7.239 -1.15,0.228 -2.19,1.007 -3.282,1.53 m 21.72,-18.061 c 22.963,-4.019 45.955,-7.944 68.785,-12.64 24.467,-5.032 48.756,-10.928 73.136,-16.391 2.245,-0.503 4.58,-0.612 6.878,-0.864 3.743,-0.412 5.097,-1.877 4.368,-5.538 -0.731,-3.666 -2.008,-7.217 -2.903,-10.855 -2.839,-11.542 -2.642,-23.3 -2.384,-35.061 0.195,-8.875 0.107,-17.817 3.346,-26.261 2.742,-7.154 5.845,-14.168 8.795,-21.24 0.327,-0.785 0.701,-1.549 1.209,-2.665 -4.816,0.598 -9.231,1.194 -13.659,1.686 -14.059,1.565 -28.143,2.924 -42.177,4.687 -10.932,1.373 -21.804,3.223 -32.7,4.872 -18.64,2.82 -37.325,5.375 -55.906,8.544 -22.11,3.769 -44.236,7.571 -66.165,12.247 -40.908,8.722 -81.739,17.826 -122.488,27.266 -33.666,7.799 -67.153,16.368 -100.745,24.489 -25.294,6.114 -50.644,11.995 -75.937,18.113 -8.907,2.154 -17.92,3.983 -26.177,8.335 -3.83,2.017 -6.462,4.589 -7.846,8.789 -4.562,13.849 -7.574,27.933 -6.657,42.593 0.888,14.195 4.134,27.718 13.413,38.994 2.965,3.604 6.579,6.739 10.193,9.732 4.831,4.001 10.118,4.038 15.632,1.086 12.962,-6.938 26.142,-13.481 38.952,-20.684 24.729,-13.907 49.299,-28.096 73.862,-42.293 11.21,-6.48 22.241,-13.269 33.368,-19.893 11.467,-6.826 23.992,-8.354 37.011,-7.256 24.695,2.083 48.623,8.171 72.619,13.922 9.08,2.176 18.176,4.321 27.344,6.067 3.282,0.625 6.96,0.693 10.175,-0.111 18.653,-4.666 37.789,-6.367 56.658,-9.67 M -51.44,-53.087 c -1.174,1.934 -0.617,2.852 2.078,4.549 10.079,6.345 20.193,12.635 30.297,18.94 2.17,1.354 4.322,2.744 6.559,3.981 0.753,0.416 1.741,0.406 2.621,0.59 0.098,-0.829 0.385,-1.687 0.266,-2.484 -1.309,-8.765 -2.65,-17.526 -4.046,-26.278 -1.605,-10.059 -0.905,-20.086 0.249,-30.119 0.192,-1.662 0.392,-3.362 0.255,-5.016 -0.667,-8.046 1.987,-15.074 6.288,-21.674 3.043,-4.67 3.003,-4.736 -1.622,-8.052 -42.758,-30.652 -85.384,-61.491 -128.327,-91.884 -40.849,-28.91 -82.03,-57.351 -123.064,-86.002 -4.129,-2.882 -8.198,-5.855 -12.381,-8.66 -4.867,-3.262 -7.98,-2.666 -11.412,2.097 -9.133,12.673 -13.999,26.804 -14.506,42.441 -0.111,3.431 -0.271,6.893 -0.833,10.269 -0.984,5.916 -0.023,11.594 1.372,17.288 1.462,5.971 2.957,11.938 4.203,17.957 1.758,8.491 6.441,14.856 13.642,19.455 57.872,36.962 115.725,73.954 173.686,110.777 5.63,3.578 11.887,6.205 17.986,8.983 1.62,0.738 3.733,0.392 5.62,0.544 11.438,-0.523 20.986,3.252 28.438,11.586 1.617,1.923 4.65,6.364 2.631,10.712 m -71.176,35.844 c 3.31,-5.071 7.129,-9.811 10.747,-14.68 0.512,-0.689 1.144,-1.289 2.01,-2.251 -4.794,-0.946 -9.215,-1.809 -13.632,-2.69 -25.216,-5.027 -50.42,-10.11 -75.648,-15.073 -26.869,-5.285 -53.758,-10.47 -80.643,-15.677 -32.92,-6.376 -65.85,-12.697 -98.763,-19.103 -34.635,-6.742 -69.246,-13.603 -103.884,-20.325 -22.336,-4.333 -44.682,-8.616 -67.059,-12.725 -18.535,-3.403 -37.131,-6.476 -55.682,-9.797 -4.233,-0.759 -8.36,-2.106 -12.591,-2.888 -5.992,-1.105 -9.735,1.412 -11.201,7.289 -2.16,8.649 -3.188,17.446 -3.092,26.353 0.097,8.993 1.544,17.784 3.87,26.484 3.644,13.626 12.732,21.032 26.239,23.351 26.762,4.596 53.559,8.983 80.327,13.544 26.451,4.507 52.897,9.053 79.323,13.708 27.128,4.78 54.209,9.825 81.346,14.551 33.824,5.891 67.721,11.378 101.521,17.404 34.032,6.069 67.979,12.609 101.972,18.896 16.094,2.977 32.208,5.848 48.314,8.758 0.225,0.04 0.469,-0.035 0.944,-0.079 -3.053,-5.45 -6.103,-10.763 -9.027,-16.143 -3.865,-7.113 -7.154,-14.429 -8.406,-22.555 -0.904,-5.867 -0.197,-11.429 3.015,-16.352 m -783.958,149.608 c 4.762,0.835 9.525,1.672 14.287,2.504 21.632,3.783 43.266,7.556 64.895,11.353 4.221,0.741 8.158,0.365 11.411,-2.744 9.693,-9.269 21.011,-16.055 32.856,-22.196 22.521,-11.675 45.487,-22.312 69.6,-30.248 17.136,-5.64 34.517,-10.534 51.661,-16.154 4.374,-1.433 8.712,-2.977 13.041,-4.549 l -0.007,0.005 93.028,-27.574 c 6.422,-1.366 12.728,-3.201 19.038,-5.255 11.048,-3.597 22.488,-6.173 33.923,-8.313 5.791,-1.084 11.948,-0.406 17.931,-0.223 10.307,0.316 20.625,0.62 30.904,1.387 10.907,0.813 21.996,1.177 32.592,3.568 9.197,2.075 18.403,2.885 27.646,4.073 6.392,0.822 12.632,2.773 19.011,3.76 11.129,1.722 22.355,2.828 33.462,4.668 15.122,2.505 30.248,5.091 45.233,8.288 35.83,7.646 71.621,15.485 107.341,23.625 16.02,3.652 31.832,8.212 47.738,12.363 0.309,0.08 0.617,0.171 0.913,0.288 4.661,1.858 7.167,1.863 9.487,-1.32 0.577,-0.473 1.202,-1.004 1.919,-1.609 0.748,-0.63 36.023,-21.177 49.613,-27.574 0.361,-0.171 0.81,-0.248 1.074,-0.512 0.529,-0.53 0.958,-1.16 1.429,-1.747 -0.567,-0.375 -1.104,-1.01 -1.706,-1.078 -3.004,-0.343 -6.078,-1.019 -9.029,-0.69 -2.63,0.293 -11.191,-0.836 -21.677,-2.55 -0.305,-0.109 -0.61,-0.202 -0.914,-0.316 -1.686,-0.635 -3.661,-0.889 -5.468,-0.758 -4.453,-0.768 -9.087,-1.605 -13.649,-2.455 -0.535,-0.298 -1.064,-0.616 -1.584,-0.974 -2.814,-1.939 -5.969,-1.627 -9.032,-1.716 -1.768,-0.051 -3.515,-0.191 -5.25,-0.384 -8.797,-1.773 -15.707,-3.298 -17.97,-3.999 -5.071,-1.572 -10.448,-2.16 -15.686,-3.198 -16.918,-3.356 -33.738,-7.399 -50.787,-9.84 -11.874,-1.701 -23.594,-3.985 -35.36,-6.156 -16.879,-3.113 -33.788,-6.061 -50.685,-9.077 -0.471,-0.084 -0.969,-0.131 -1.414,-0.221 -7.473,-3.792 -15.689,-4.082 -23.754,-5.098 -2.22,-0.279 -4.44,-0.589 -6.637,-1.004 -0.609,-0.121 -1.521,-0.298 -0.23,-0.039 -15.959,-3.078 -31.86,-6.504 -47.882,-9.208 -16.221,-2.738 -32.581,-4.641 -48.842,-7.16 -11.284,-1.748 -22.509,-3.884 -33.75,-5.907 -8.379,-1.507 -16.75,-3.051 -25.156,-4.381 -15.673,-2.69 -31.941,-5.446 -34.744,-5.934 -9.283,-1.616 -18.653,-2.734 -27.929,-4.385 -7.934,-1.411 -15.738,-3.571 -23.687,-4.864 -7.401,-1.204 -14.913,-1.737 -22.384,-2.48 -1.815,-0.18 -3.204,0.599 -3.932,2.459 -2.411,6.164 -6.823,10.464 -12.571,13.614 -59.991,32.882 -119.914,65.887 -179.964,98.661 -27.357,14.931 -54.946,29.435 -82.446,44.104 -4.65,2.48 -9.385,4.798 -14.067,7.218 -0.688,0.356 -1.297,0.861 -1.943,1.297 0.034,0.218 0.069,0.436 0.103,0.655 m 452.48,-30.026 c 0.413,-6.861 0.575,-13.751 1.331,-20.574 0.396,-3.582 1.875,-7.038 2.77,-10.576 0.376,-1.485 0.506,-3.032 0.748,-4.552 -1.748,-0.244 -3.582,-0.959 -5.228,-0.656 -9.5,1.75 -18.979,3.629 -28.421,5.671 -26.911,5.821 -53.909,11.293 -80.677,17.716 -51.903,12.454 -102.787,28.327 -152.702,47.254 -21.727,8.239 -43.371,16.697 -65.06,25.037 -6.743,2.592 -11.289,7.208 -12.905,14.316 -3.466,15.247 -6.971,30.49 -10.1,45.809 -1.209,5.92 -1.442,12.04 -2.119,18.069 0.336,12.732 3.885,24.287 11.301,34.624 2.603,3.627 5.742,6.48 10.399,6.993 1.15,0.127 2.424,0.074 3.507,-0.292 10.732,-3.627 21.486,-7.2 32.14,-11.048 43.627,-15.755 87.194,-31.674 130.834,-47.394 54.019,-19.459 108.014,-38.973 161.013,-61.116 6.609,-2.762 7.529,-3.977 5.818,-10.874 -3.967,-15.993 -3.625,-32.17 -2.649,-48.407 M -822.78,234.378 c 0.587,15.662 3.734,30.955 9.951,45.389 6.172,14.328 17.968,22.115 32.492,26.546 6.956,2.123 13.338,1.727 20.244,-0.826 27.477,-10.157 55.312,-19.363 82.685,-29.785 31.263,-11.903 62.284,-24.462 93.216,-37.211 42.828,-17.652 85.475,-35.743 128.195,-53.659 3.789,-1.59 7.505,-3.396 9.738,-7.056 0.902,-1.478 1.267,-3.283 1.876,-4.939 -0.202,-0.228 -0.404,-0.457 -0.606,-0.685 -1.744,0.343 -3.59,0.427 -5.217,1.067 -27.195,10.707 -54.458,21.251 -81.514,32.302 -35.059,14.32 -70.676,27.097 -106.348,39.773 -35.437,12.592 -70.68,25.733 -105.992,38.674 -9.299,3.407 -18.522,7.024 -27.818,10.44 -15.61,5.735 -28.645,-0.6 -36.211,-13.535 -7.301,-12.482 -9.829,-26.117 -10.628,-40.356 -1.287,-22.944 3.769,-44.749 10.904,-66.267 2.016,-6.081 4.84,-11.471 10.4,-14.939 79.997,-49.901 336.76,-107.627 337.993,-107.789 16.818,-2.211 33.295,-0.081 49.736,3.34 57.764,12.019 115.095,25.916 172.477,39.594 64.838,15.453 129.697,30.822 194.544,46.234 5.825,1.385 11.665,2.713 17.446,4.261 6.363,1.703 8.188,4.574 7.441,11.056 -0.134,1.166 -0.177,2.342 -0.313,4.211 7.05,-4.961 14.525,-8.235 20.254,-13.994 -0.076,-0.367 -0.153,-0.734 -0.229,-1.1 -0.39,-0.064 -0.78,-0.143 -1.17,-0.224 l -39.267,-9.855 c -0.041,-0.029 -0.083,-0.054 -0.124,-0.084 -0.762,-0.163 -1.519,-0.345 -2.278,-0.519 l -9.354,-2.347 c -7.453,-2.004 -14.866,-4.175 -22.458,-5.74 -18.436,-3.8 -36.635,-8.746 -54.938,-13.188 -7.601,-1.844 -15.273,-3.426 -22.807,-5.511 -6.709,-1.856 -13.373,-3.956 -19.903,-6.365 v 0.465 c -24.945,-8.212 -57.571,-16.343 -91.874,-23.834 -1.565,-0.304 -3.129,-0.614 -4.698,-0.896 -5.064,-0.911 -10.165,-1.621 -15.207,-2.631 -1.233,-0.247 -2.375,-0.91 -3.551,-1.449 -85.527,-17.65 -173.003,-30.651 -173.003,-30.651 -9.966,-0.441 -19.924,-0.331 -29.864,1.353 -12.752,2.161 -25.68,3.36 -38.363,5.841 -22.573,4.417 -44.7,10.694 -66.625,17.634 -15.14,4.792 -30.058,10.374 -45.371,14.507 -20.965,5.66 -41.043,13.687 -61.307,21.247 -28.589,10.667 -56.852,22.137 -84.562,34.951 -9.392,4.343 -16.371,10.92 -21.009,20.139 -5.694,11.316 -10.873,22.856 -12.916,35.435 -2.203,13.561 -4.583,27.19 -4.067,40.976 m 782.315,-28.03 c 0.253,-3.342 0.502,-6.715 0.333,-10.052 -0.534,-10.53 1.924,-20.631 4.069,-30.79 1.604,-7.6 1.271,-7.958 -6.336,-9.947 -32.441,-8.481 -65.162,-15.751 -97.876,-23.079 -27.408,-6.139 -54.616,-13.166 -81.958,-19.606 -33.098,-7.797 -66.274,-15.263 -99.361,-23.107 -31.295,-7.419 -62.515,-15.155 -93.778,-22.71 -2.866,-0.692 -5.792,-1.185 -8.715,-1.585 -4.604,-0.628 -8.655,1.984 -10.368,6.756 -3.031,8.449 -5.273,17.089 -5.79,26.104 -0.897,15.64 -0.045,31.168 3.326,46.488 0.783,3.561 2.14,7.024 3.507,10.421 1.247,3.097 3.815,4.833 7.052,5.567 21.255,4.812 42.483,9.744 63.769,14.41 40.309,8.837 80.667,17.453 120.977,26.287 42.726,9.365 85.352,19.199 128.158,28.176 18.972,3.979 38.272,6.396 57.436,9.442 7.178,1.14 14.392,2.059 21.591,3.062 1.096,0.152 2.205,0.211 3.842,0.361 -1.689,-3.896 -2.934,-7.459 -4.712,-10.733 -4.342,-7.996 -5.847,-16.476 -5.166,-25.465 m -703.213,108.015 c 23.748,4.167 47.49,8.373 71.278,12.296 18.356,3.027 36.784,5.612 55.166,8.482 13.888,2.169 27.732,4.63 41.636,6.685 15.007,2.217 30.07,4.055 45.094,6.168 13.6,1.913 27.233,3.672 40.756,6.041 18.047,3.161 36.165,5.37 54.456,6.52 10.349,0.651 20.633,2.331 30.951,3.502 12.387,1.405 24.772,2.828 37.171,4.123 16.854,1.76 33.712,3.503 50.586,5.056 7.541,0.694 15.136,1.381 22.687,1.212 8.918,-0.199 17.367,-3.282 25.858,-5.809 42.383,-12.611 84.801,-25.104 127.133,-37.884 31.15,-9.404 61.223,-21.796 91.455,-33.724 15.972,-6.302 31.921,-12.658 47.878,-18.998 0.869,-0.346 1.708,-0.767 3.183,-1.434 -4.14,-0.918 -7.615,-1.747 -11.115,-2.454 -23.63,-4.776 -47.157,-10.189 -70.932,-14.085 -20.876,-3.422 -41.079,-9.229 -61.521,-14.292 -16.417,-4.066 -33.14,-6.882 -49.676,-10.486 -33.687,-7.343 -67.39,-14.623 -100.99,-22.348 -25.357,-5.83 -50.564,-12.308 -75.837,-18.503 -11.389,-2.792 -22.672,-6.175 -34.193,-8.223 -10.191,-1.812 -20.635,-2.311 -30.992,-3.011 -2.479,-0.168 -5.439,0.571 -7.531,1.906 -11.21,7.157 -23.62,11.605 -35.803,16.625 -25.551,10.527 -50.957,21.404 -76.532,31.87 -37.03,15.153 -73.945,30.621 -111.31,44.903 -27.716,10.594 -56.074,19.503 -84.129,29.214 -1.841,0.637 -3.529,1.716 -5.558,2.724 3.216,3.568 7.214,3.289 10.831,3.924 M 8.465,-28.451 c 1.027,5.394 3.719,9.63 8.325,12.623 8.981,5.838 17.901,11.775 26.983,17.453 5.949,3.718 11.565,7.643 14.622,14.264 v 12.48 c -2.928,6.611 -8.614,9.066 -15.21,10.578 -28.864,6.617 -57.693,13.39 -86.531,20.122 -4.277,0.999 -7.709,3.2 -10.334,6.846 -4.232,5.875 -10.671,8.732 -16.905,11.832 -9.371,4.657 -18.722,9.352 -28.074,14.045 -0.563,0.283 -1.063,0.691 -2.13,1.395 2.235,0.889 4.031,1.813 5.937,2.33 34.436,9.327 68.884,18.616 103.336,27.885 8.004,2.154 13.645,6.774 16.003,14.935 0.797,2.757 1.572,5.521 2.31,8.294 1.225,4.599 -0.453,8.292 -3.662,11.491 -7.429,7.407 -16.079,13.09 -25.186,18.206 -4.586,2.576 -8.997,5.525 -13.227,8.657 -6.15,4.556 -7.94,11.234 -7.77,18.476 0.343,14.594 5.909,27.025 16.243,37.269 5.935,5.884 13.475,9.031 21.206,11.759 2.559,0.903 5.128,1.781 7.676,2.715 14.526,5.324 12.514,24.846 3.964,30.581 -5.566,3.733 -11.411,7.069 -17.248,10.377 -24.277,13.752 -49.86,24.37 -76.484,32.766 -28.157,8.879 -55.996,18.761 -84.078,27.888 -15.179,4.934 -30.632,9.02 -45.86,13.812 -26.807,8.436 -53.483,17.293 -80.801,24.002 -0.379,0.094 -0.731,0.304 -1.095,0.459 h -34.08 c -4.739,-0.633 -9.471,-1.318 -14.217,-1.891 -17.135,-2.066 -34.275,-4.083 -51.411,-6.138 -16.342,-1.961 -32.686,-3.906 -49.021,-5.932 -15.936,-1.975 -31.867,-3.995 -47.789,-6.081 -28.355,-3.714 -56.712,-7.417 -85.049,-11.266 -27.308,-3.709 -54.637,-7.308 -81.874,-11.494 -23.909,-3.674 -47.693,-8.155 -71.553,-12.159 -12.68,-2.128 -25.435,-3.816 -38.098,-6.033 -18.287,-3.203 -36.119,-8.182 -53.415,-14.941 -10.152,-3.967 -19.182,-9.767 -23.852,-19.994 -3.022,-6.618 -4.945,-13.806 -6.752,-20.894 -4.185,-16.415 -6.027,-33.143 -5.715,-50.101 0.332,-18.138 2.65,-35.979 7.759,-53.419 0.383,-1.304 0.796,-2.604 1.072,-3.931 0.782,-3.755 -0.017,-4.935 -3.838,-5.588 -4.961,-0.849 -9.934,-1.619 -14.9,-2.436 -21.118,-3.472 -42.235,-6.949 -63.352,-10.424 -2.679,-0.441 -5.372,-0.81 -8.035,-1.334 -6.774,-1.332 -11.48,-5.869 -16.375,-10.31 -16.195,-14.694 -24.347,-33.473 -28.293,-54.481 -0.469,-2.494 -0.967,-4.982 -1.452,-7.473 v -36.96 c 0.956,-4.996 1.7,-10.043 2.905,-14.978 4.544,-18.61 11.896,-35.916 24.267,-50.797 6.167,-7.419 14.227,-12.323 22.663,-16.634 18.711,-9.561 37.477,-19.014 56.219,-28.514 1.283,-0.65 2.582,-1.275 3.826,-1.993 2.591,-1.497 2.655,-2.417 0.379,-4.483 -3.256,-2.954 -6.621,-5.797 -9.755,-8.874 -12.985,-12.75 -22.449,-27.661 -26.756,-45.468 -5.271,-21.791 -5.592,-43.527 3.665,-64.387 7.011,-15.798 16.769,-29.972 28.884,-42.39 5.448,-5.584 12.389,-8.604 19.757,-10.822 39.688,-11.945 79.854,-22.102 120.105,-31.911 42.264,-10.3 84.528,-20.632 126.968,-30.173 41.194,-9.26 82.548,-17.848 123.95,-26.14 31.547,-6.319 63.292,-11.645 94.925,-17.543 16.716,-3.118 33.36,-6.625 50.082,-9.714 5.004,-0.924 10.15,-1.28 15.247,-1.452 8.948,-0.304 17.908,-0.29 26.863,-0.334 0.982,-0.005 2.064,0.304 2.934,0.775 35.894,19.403 70.729,40.609 104.528,63.413 56.398,38.051 112.421,76.658 168.475,115.214 13.558,9.325 26.989,18.914 39.783,29.243 8.218,6.634 15.143,14.865 22.69,22.338 4.796,4.75 5.731,10.456 4.491,16.81 -2.057,10.535 -7.72,18.259 -17.6,22.697 -9.252,4.155 -18.474,8.386 -27.818,12.326 -4.653,1.961 -7.628,4.571 -7.394,10.117 0.107,2.567 -0.952,5.165 -1.303,7.773 -0.901,6.707 0.583,13.194 1.966,19.688 1.131,5.31 2.27,10.62 3.284,15.953"
             style="fill:#000000;fill-opacity:1;fill-rule:nonzero;stroke:none"
             id="path64" />
        </g>
      </g>
    </g>
  </g>
</svg>
